<svg xmlns="http://www.w3.org/2000/svg" width="96" height="128" viewBox="0 0 96 128"><title>neon glow</title><defs><linearGradient id="hair" x1="0" x2="1"><stop stop-color="#20252b"/><stop offset=".38" stop-color="#51575b"/><stop offset=".72" stop-color="#353a40"/><stop offset="1" stop-color="#1c2229"/></linearGradient><linearGradient id="metal" x1="0" x2="1"><stop stop-color="#696d6e"/><stop offset=".2" stop-color="#c2c4c1"/><stop offset=".43" stop-color="#909493"/><stop offset=".8" stop-color="#727776"/><stop offset="1" stop-color="#b4b6b2"/></linearGradient><linearGradient id="blue" x1="0" y1="0" x2="1" y2="1"><stop stop-color="#68d5ff"/><stop offset=".45" stop-color="#159afa"/><stop offset="1" stop-color="#1554b8"/></linearGradient></defs><path d="M38 73l3-21h14l3 21Z" fill="url(#hair)" stroke="#242a30"/><path d="M41 51V38l7-22 7 22v13Z" fill="url(#blue)" stroke="#1975c9"/><path d="M47 25l-3 17v7" fill="none" stroke="#bbf0ff" stroke-width="1.7"/><path d="M35 77h26l1 30H34Z" fill="url(#metal)" stroke="#646967" stroke-width=".8"/><path d="M35 78h26M35 81h26" stroke="#e9e9e1" stroke-width="1"/><path d="M38 84v20" stroke="#eee" opacity=".36"/><path d="M29 31l-5-3m43 3 5-3M31 16l-3-4m37 4 3-4" stroke="#4cb8fb" stroke-width="1.5" stroke-linecap="round"/></svg>
