<svg xmlns="http://www.w3.org/2000/svg" viewBox="0 0 512 512" width="512" height="512">
  <defs>
    <linearGradient id="bgGrad" x1="0%" y1="0%" x2="100%" y2="100%">
      <stop offset="0%" stop-color="#12151c"/>
      <stop offset="100%" stop-color="#0c0e14"/>
    </linearGradient>
    <linearGradient id="topFace" x1="0%" y1="0%" x2="100%" y2="100%">
      <stop offset="0%" stop-color="#7dd3fc"/>
      <stop offset="100%" stop-color="#38bdf8"/>
    </linearGradient>
    <linearGradient id="leftFace" x1="0%" y1="0%" x2="100%" y2="100%">
      <stop offset="0%" stop-color="#0891b2"/>
      <stop offset="100%" stop-color="#0e7490"/>
    </linearGradient>
    <linearGradient id="rightFace" x1="0%" y1="0%" x2="100%" y2="100%">
      <stop offset="0%" stop-color="#0284c7"/>
      <stop offset="100%" stop-color="#0369a1"/>
    </linearGradient>
    <linearGradient id="strokeGrad" x1="0%" y1="0%" x2="100%" y2="100%">
      <stop offset="0%" stop-color="#f43f5e"/>
      <stop offset="100%" stop-color="#fb7185"/>
    </linearGradient>
  </defs>
  <rect width="512" height="512" rx="112" fill="url(#bgGrad)"/>
  <rect x="16" y="16" width="480" height="480" rx="96" fill="none" stroke="#38bdf8" stroke-width="6" stroke-opacity="0.25"/>
  <path d="M 80 256 A 176 176 0 1 0 400 160" fill="none" stroke="url(#strokeGrad)" stroke-width="24" stroke-linecap="round"/>
  <g>
    <polygon points="256,130 360,190 256,250 152,190" fill="url(#topFace)"/>
    <polygon points="152,190 256,250 256,370 152,310" fill="url(#leftFace)"/>
    <polygon points="256,250 360,190 360,310 256,370" fill="url(#rightFace)"/>
  </g>
</svg>
